<svg width="16" height="16" viewBox="0 0 16 16" fill="none" xmlns="http://www.w3.org/2000/svg">
<mask id="mask0_3006_2117" style="mask-type:alpha" maskUnits="userSpaceOnUse" x="0" y="0" width="16" height="17">
<path d="M14.3864 4.72479C14.2348 4.17998 13.7803 3.74988 13.2045 3.59934C12.1667 3.33411 8 3.33411 8 3.33411C8 3.33411 3.83333 3.33411 2.78788 3.59934C2.21212 3.74271 1.76515 4.17282 1.60606 4.72479C1.33333 5.71403 1.33333 7.77855 1.33333 7.77855C1.33333 7.77855 1.33333 9.84307 1.61364 10.8323C1.76515 11.3771 2.2197 11.8072 2.79545 11.9578C3.83333 12.223 8 12.223 8 12.223C8 12.223 12.1667 12.223 13.2121 11.9578C13.7879 11.8144 14.2348 11.3843 14.3939 10.8323C14.6667 9.84307 14.6667 7.77855 14.6667 7.77855C14.6667 7.77855 14.6667 5.71403 14.3864 4.72479ZM6.63636 9.65669V5.90041L10.1212 7.77855L6.63636 9.65669Z" fill="#071435"/>
</mask>
<g mask="url(#mask0_3006_2117)">
<rect width="16" height="16" transform="translate(0 0.000732422)" fill="#1551E5"/>
</g>
</svg>
