<svg width="16" height="16" viewBox="0 0 16 16" fill="none" xmlns="http://www.w3.org/2000/svg">
<mask id="mask0_3006_2111" style="mask-type:alpha" maskUnits="userSpaceOnUse" x="0" y="0" width="16" height="17">
<path fill-rule="evenodd" clip-rule="evenodd" d="M13.3333 9.73374L11.4607 8.00041L13.3333 6.26774V9.73374ZM10 10.6671C10 11.0351 9.70134 11.3337 9.33334 11.3337H3.33334C2.96534 11.3337 2.66668 11.0351 2.66668 10.6671V5.33374C2.66668 4.96641 2.96534 4.66707 3.33334 4.66707H9.33334C9.70134 4.66707 10 4.96641 10 5.33374V10.6671ZM14.008 4.76441C13.5907 4.58241 13.1067 4.66174 12.774 4.96841L11.3333 6.30174V5.33374C11.3333 4.23107 10.436 3.33374 9.33334 3.33374H3.33334C2.23068 3.33374 1.33334 4.23107 1.33334 5.33374V10.6671C1.33334 11.7704 2.23068 12.6671 3.33334 12.6671H9.33334C10.436 12.6671 11.3333 11.7704 11.3333 10.6671V9.69974L12.774 11.0324C12.9873 11.2304 13.264 11.3337 13.546 11.3337C13.702 11.3337 13.8587 11.3024 14.008 11.2371C14.414 11.0597 14.6667 10.6804 14.6667 10.2477V5.75374C14.6667 5.32107 14.414 4.94174 14.008 4.76441Z" fill="#071435"/>
</mask>
<g mask="url(#mask0_3006_2111)">
<rect width="16" height="16" transform="translate(0 0.000732422)" fill="#77829E"/>
</g>
</svg>
