<svg width="16" height="16" viewBox="0 0 16 16" fill="none" xmlns="http://www.w3.org/2000/svg">
<mask id="mask0_3006_2114" style="mask-type:alpha" maskUnits="userSpaceOnUse" x="0" y="0" width="16" height="17">
<path fill-rule="evenodd" clip-rule="evenodd" d="M7.33333 5.33411C7.33333 4.96611 7.632 4.66744 8 4.66744C8.368 4.66744 8.66666 4.96611 8.66666 5.33411C8.66666 5.70211 8.368 6.00077 8 6.00077C7.632 6.00077 7.33333 5.70211 7.33333 5.33411ZM7.33333 7.33411C7.33333 6.96611 7.632 6.66744 8 6.66744C8.368 6.66744 8.66666 6.96611 8.66666 7.33411V10.6674C8.66666 11.0354 8.368 11.3341 8 11.3341C7.632 11.3341 7.33333 11.0354 7.33333 10.6674V7.33411ZM7.99999 13.3341C5.05933 13.3341 2.66666 10.9414 2.66666 8.00077C2.66666 5.06011 5.05933 2.66744 7.99999 2.66744C10.9407 2.66744 13.3333 5.06011 13.3333 8.00077C13.3333 10.9414 10.9407 13.3341 7.99999 13.3341ZM8 1.33411C4.318 1.33411 1.33333 4.31877 1.33333 8.00077C1.33333 11.6828 4.318 14.6674 8 14.6674C11.6813 14.6674 14.6667 11.6828 14.6667 8.00077C14.6667 4.31877 11.6813 1.33411 8 1.33411Z" fill="#071435"/>
</mask>
<g mask="url(#mask0_3006_2114)">
<rect width="16" height="16" transform="translate(0 0.000732422)" fill="#77829E"/>
</g>
</svg>
