<svg width="16" height="16" viewBox="0 0 16 16" fill="none" xmlns="http://www.w3.org/2000/svg">
<mask id="mask0_3006_2108" style="mask-type:alpha" maskUnits="userSpaceOnUse" x="0" y="0" width="16" height="17">
<path fill-rule="evenodd" clip-rule="evenodd" d="M11.6295 13.3341H4.3702C4.1662 13.3341 4.0002 13.1848 4.0002 13.0008V3.00077C4.0002 2.81677 4.1662 2.66744 4.3702 2.66744H7.33354V5.43411C7.33354 6.48211 8.14487 7.33411 9.14287 7.33411H12.0002V13.0008C12.0002 13.1848 11.8335 13.3341 11.6295 13.3341V13.3341ZM11.7662 6.00077H9.14287C8.8802 6.00077 8.66687 5.74677 8.66687 5.43411V2.66744H8.74154L11.7662 6.00077ZM13.1602 5.55277L9.53087 1.55277C9.40487 1.41344 9.22554 1.33411 9.03687 1.33411H4.3702C3.43087 1.33411 2.66687 2.08211 2.66687 3.00077V13.0008C2.66687 13.9194 3.43087 14.6674 4.3702 14.6674H11.6295C12.5689 14.6674 13.3335 13.9194 13.3335 13.0008V6.00077C13.3335 5.83477 13.2715 5.67544 13.1602 5.55277V5.55277Z" fill="#071435"/>
</mask>
<g mask="url(#mask0_3006_2108)">
<rect width="16" height="16" transform="translate(0 0.000732422)" fill="#77829E"/>
</g>
</svg>
