<svg width="124" height="26" viewBox="0 0 124 26" fill="none" xmlns="http://www.w3.org/2000/svg">
<path d="M14.6828 2.40073C14.6828 1.07525 15.757 0.000732422 17.0822 0.000732422H21.8812C23.2064 0.000732422 24.2806 1.07525 24.2806 2.40073V7.20073C24.2806 8.52622 23.2064 9.60073 21.8812 9.60073H17.0822C15.757 9.60073 14.6828 8.52622 14.6828 7.20073V2.40073Z" fill="#828EAD"/>
<path d="M14.6827 16.8007C14.6827 15.4752 15.757 14.4007 17.0822 14.4007H21.8812C23.2063 14.4007 24.2806 15.4752 24.2806 16.8007V21.6007C24.2806 22.9262 23.2063 24.0007 21.8812 24.0007H17.0822C15.757 24.0007 14.6827 22.9262 14.6827 21.6007V16.8007Z" fill="#828EAD"/>
<path d="M0.28595 16.8007C0.28595 15.4752 1.36023 14.4007 2.68542 14.4007H7.48435C8.80954 14.4007 9.88382 15.4752 9.88382 16.8007V21.6007C9.88382 22.9262 8.80954 24.0007 7.48435 24.0007H2.68542C1.36023 24.0007 0.28595 22.9262 0.28595 21.6007V16.8007Z" fill="#828EAD"/>
<path fill-rule="evenodd" clip-rule="evenodd" d="M14.6828 7.20073C14.6828 8.52622 13.6085 9.60073 12.2833 9.60073C10.9581 9.60073 9.88383 8.52622 9.88383 7.20073C9.88383 8.52622 8.80955 9.60073 7.48436 9.60073C8.80955 9.60073 9.88382 10.6752 9.88382 12.0007C9.88382 13.3262 8.80954 14.4007 7.48435 14.4007L9.88382 16.8007C9.88382 15.4752 10.9581 14.4007 12.2833 14.4007C13.6085 14.4007 14.6827 15.4752 14.6827 16.8007L17.0822 14.4007C15.757 14.4007 14.6827 13.3262 14.6827 12.0007C14.6827 10.6752 15.757 9.60073 17.0822 9.60073L14.6828 7.20073Z" fill="#828EAD"/>
<path d="M7.48436 0.000732422H2.68543C1.36024 0.000732422 0.285961 1.07525 0.285961 2.40073V7.20073C0.285961 8.52622 1.36024 9.60073 2.68543 9.60073H7.48436L9.88383 7.20073V2.40073C9.88383 1.07525 8.80955 0.000732422 7.48436 0.000732422Z" fill="#828EAD"/>
<path d="M9.88383 7.20073C9.88383 8.52622 8.80955 9.60073 7.48436 9.60073L9.88383 7.20073Z" fill="#828EAD"/>
<path d="M45.6834 9.3238C46.0043 9.22921 46.1777 8.87936 46.032 8.57812C44.7955 6.02128 42.2164 4.38354 39.1295 4.38354C36.9316 4.38354 35.1233 5.10378 33.6488 6.57194C32.2021 8.0124 31.4788 9.81298 31.4788 12.0014C31.4788 14.1898 32.2021 15.9903 33.6488 17.4585C35.1233 18.899 36.9316 19.6192 39.1295 19.6192C42.2164 19.6192 44.7955 17.9815 46.032 15.4246C46.1777 15.1234 46.0043 14.7735 45.6834 14.6789L43.2829 13.9714C43.0075 13.8903 42.7185 14.0286 42.5702 14.2743C41.8601 15.4504 40.5945 16.1565 39.1295 16.1565C37.9888 16.1565 37.0151 15.7687 36.2361 14.9654C35.4572 14.1621 35.0677 13.1925 35.0677 12.0014C35.0677 10.8102 35.4572 9.84068 36.2361 9.03734C37.0151 8.23401 37.9888 7.84619 39.1295 7.84619C40.5945 7.84619 41.8601 8.55239 42.5702 9.7284C42.7185 9.97416 43.0075 10.1125 43.2829 10.0313L45.6834 9.3238Z" fill="#828EAD"/>
<path d="M50.642 17.4585C52.1165 18.899 53.9248 19.6192 56.1227 19.6192C58.3205 19.6192 60.1288 18.899 61.6033 17.4585C63.0778 15.9903 63.8012 14.1898 63.8012 12.0014C63.8012 9.81298 63.0778 8.0124 61.6033 6.57194C60.1288 5.10378 58.3205 4.38354 56.1227 4.38354C53.9248 4.38354 52.1165 5.10378 50.642 6.57194C49.1953 8.0124 48.472 9.81298 48.472 12.0014C48.472 14.1898 49.1953 15.9903 50.642 17.4585ZM53.2293 9.03734C54.0083 8.23401 54.982 7.84619 56.1227 7.84619C57.2633 7.84619 58.237 8.23401 59.016 9.03734C59.795 9.84068 60.1845 10.8102 60.1845 12.0014C60.1845 13.1925 59.795 14.1621 59.016 14.9654C58.237 15.7687 57.2633 16.1565 56.1227 16.1565C54.982 16.1565 54.0083 15.7687 53.2293 14.9654C52.4503 14.1621 52.0609 13.1925 52.0609 12.0014C52.0609 10.8102 52.4503 9.84068 53.2293 9.03734Z" fill="#828EAD"/>
<path d="M69.09 19.2037C69.406 19.2037 69.6623 18.9474 69.6623 18.6313V10.7271C69.6623 8.98194 70.9977 7.67999 72.6947 7.67999C74.3918 7.67999 75.6993 8.98194 75.6993 10.7271V18.6313C75.6993 18.9474 75.9555 19.2037 76.2716 19.2037H78.6047C78.9207 19.2037 79.1769 18.9474 79.1769 18.6313V10.7271C79.1769 8.98194 80.5123 7.67999 82.2094 7.67999C83.9064 7.67999 85.214 8.98194 85.214 10.7271V18.6313C85.214 18.9474 85.4702 19.2037 85.7862 19.2037H88.0915C88.4075 19.2037 88.6637 18.9474 88.6637 18.6313V9.72987C88.6637 8.20631 88.1073 6.93205 87.0223 5.90711C85.9373 4.88217 84.5741 4.38354 82.9049 4.38354C81.2155 4.38354 79.8534 4.92022 78.8506 6.00951C78.5564 6.32909 78.0171 6.329 77.724 6.00846C76.7284 4.91987 75.3897 4.38354 73.7241 4.38354C72.3655 4.38354 71.2209 4.79185 70.3045 5.62267C70.0757 5.83016 69.6623 5.68039 69.6623 5.37144C69.6623 5.05532 69.406 4.79906 69.09 4.79906H66.7569C66.4409 4.79906 66.1847 5.05532 66.1847 5.37144V18.6313C66.1847 18.9474 66.4409 19.2037 66.7569 19.2037H69.09Z" fill="#828EAD"/>
<path d="M93.9503 25.4365C94.2663 25.4365 94.5225 25.1802 94.5225 24.8641V19.32C94.5225 18.8156 95.1183 18.5223 95.5588 18.7679C96.5704 19.3317 97.6772 19.6192 98.8904 19.6192C100.893 19.6192 102.563 18.899 103.926 17.4585C105.289 15.9904 105.957 14.1898 105.957 12.0014C105.957 9.81301 105.289 8.01243 103.926 6.57196C102.563 5.1038 100.893 4.38357 98.8904 4.38357C97.4392 4.38357 96.1403 4.79493 94.9744 5.59852C94.7875 5.72731 94.5225 5.59843 94.5225 5.37146C94.5225 5.05535 94.2663 4.79909 93.9503 4.79909H91.6172C91.3012 4.79909 91.045 5.05535 91.045 5.37146V24.8641C91.045 25.1802 91.3012 25.4365 91.6172 25.4365H93.9503ZM101.199 9.03737C101.951 9.84071 102.34 10.8103 102.34 12.0014C102.34 13.1926 101.951 14.1621 101.199 14.9654C100.448 15.7688 99.5303 16.1566 98.4452 16.1566C97.3602 16.1566 96.4422 15.7688 95.691 14.9654C94.9398 14.1621 94.5782 13.1926 94.5782 12.0014C94.5782 10.8103 94.9398 9.84071 95.691 9.03737C96.4422 8.23404 97.3602 7.84622 98.4452 7.84622C99.5303 7.84622 100.448 8.23404 101.199 9.03737Z" fill="#828EAD"/>
<path d="M110.509 17.4585C111.983 18.899 113.792 19.6192 115.99 19.6192C118.187 19.6192 119.996 18.899 121.47 17.4585C122.945 15.9904 123.668 14.1898 123.668 12.0014C123.668 9.81301 122.945 8.01243 121.47 6.57196C119.996 5.1038 118.187 4.38357 115.99 4.38357C113.792 4.38357 111.983 5.1038 110.509 6.57196C109.062 8.01243 108.339 9.81301 108.339 12.0014C108.339 14.1898 109.062 15.9904 110.509 17.4585ZM113.096 9.03737C113.875 8.23404 114.849 7.84622 115.99 7.84622C117.13 7.84622 118.104 8.23404 118.883 9.03737C119.662 9.84071 120.051 10.8103 120.051 12.0014C120.051 13.1926 119.662 14.1621 118.883 14.9654C118.104 15.7688 117.13 16.1566 115.99 16.1566C114.849 16.1566 113.875 15.7688 113.096 14.9654C112.317 14.1621 111.928 13.1926 111.928 12.0014C111.928 10.8103 112.317 9.84071 113.096 9.03737Z" fill="#828EAD"/>
</svg>
